<svg id="Graphic_elements" data-name="Graphic elements" xmlns="http://www.w3.org/2000/svg" viewBox="0 0 1200 675"><defs><style>.cls-1{fill:#231f20;}</style></defs><path class="cls-1" d="M123.37,405.47c408-46.76,443.41,332,758.9,185.81C555.44,673,550.78,298.61,123.37,405.47Z"/><polygon class="cls-1" points="729.1 288.33 623.53 206.1 650.71 273.8 632.5 294.79 679.22 324.63 682.76 298.65 702.82 348.83 819.63 385.62 734.35 330.42 729.1 288.33"/><path class="cls-1" d="M1002.55,459.8l-.85-4.24-12.59-7,11.38.95L998,437.29l-1.72-8.58-10.44-4,9.66.53L992.77,411l-6.89-2.52h6.39l-6.39-31.86-5,24.78,5-1.31-5.38,3.41-2.87,14.33,8.25-2.15-9.4,7.87-2.76,13.77-1.3,6.51,9.76-3.34L970.78,452l-3.32,16.57h0c-1,.22-2,.42-3,.63l-1.15-5.75-20-11.14,18.07,1.51-3.88-19.39-2.73-13.63-16.58-6.38,15.33.84-4.39-22.62-10.94-4h10.13L938.2,338l-7.89,39.37,7.89-2.09-8.56,5.42-4.55,22.76L938.2,400l-14.93,12.5-4.38,21.88-2.07,10.35,15.5-5.3-18.11,18.3-.15.73-3.76-18.81-3.45-17.17-20.87-8,19.3,1.05-5.53-28.48L886,382h12.76L886,318.28l-9.93,49.57,9.93-2.62-10.77,6.82-.56,2.79L782.92,288,903.2,302.4,791.61,239.29l6.54,27.32-60.42-52.72L706.9,216,690,200l98.51,13.08L780.83,170,1024,360.52,748.51,110l-77,69.26L522.24,50,310,262.18l-.78-3.89-20.88-8,19.31,1.06-5.53-28.49-13.78-5h12.77l-12.77-63.73-9.92,49.57,9.92-2.63-10.76,6.83-5.74,28.65,16.5-4.31-18.79,15.74-5.52,27.55-2.61,13L281,281.81l-22.8,23.05L256,315.49l-1.64-8.19L251,290.13l-20.88-8,19.31,1.06-5.53-28.48-13.78-5h12.77l-12.77-63.74-9.93,49.57,9.93-2.62-10.77,6.82-5.74,28.66L230.08,264l-18.8,15.73-5.52,27.56-2.61,13,19.53-6.68L199.87,336.7,195,361c-2.73.75-5.45,1.53-8.17,2.31l-24-13.36,22.75,1.9-4.89-24.42-3.44-17.17-20.87-8,19.3,1.05-5.53-28.48-13.77-5h12.76L156.39,206l-9.93,49.57,9.93-2.63-10.77,6.83-5.74,28.65,16.51-4.31-18.8,15.74-5.52,27.55-2.61,13L149,333.76l-22.8,23.05-6,29.76A641.78,641.78,0,0,0,50,420.63c107.92-33.92,199.81-53.91,288.86-50L341,360l11.4-11.52-9.76,3.34,1.3-6.52,2.76-13.77,9.4-7.87-8.25,2.15,2.87-14.32,5.38-3.42-5,1.32,5-24.79,6.39,31.87h-6.39L363,319l2.77,14.24-9.66-.53,10.44,4,1.72,8.58,2.45,12.22-11.38-1,12.59,7,2,9.83q12.78,1.48,25.53,3.7l22.8-23.05-19.52,6.68,2.6-13,5.52-27.55,18.8-15.74-16.51,4.31,5.74-28.65,10.77-6.83-9.93,2.63,9.93-49.57L442.37,290H429.6l13.78,5,5.53,28.48-19.31-1.05,20.88,8,3.44,17.17,4.89,24.42-22.76-1.91,25.19,14,1.68,8.4C517.44,410,573.2,437.91,633.19,478.79,788.35,584.51,1034.06,544.5,1150,395.56,1100.35,423.5,1051.47,445.63,1002.55,459.8ZM240.3,331.91l-3.77-2.1,5.41.45ZM855.77,469.08l-1.43,7.15c-56.36-4.51-113.83-22-173.58-55.6a642.42,642.42,0,0,0-174.11-66.92L560,316.25l-54.64-84.66L542.25,187l-23.09-55.42L414.49,180.8,520.32,79.6,874.59,375.14l-5.12,25.57L886,396.4l-18.8,15.74-5.52,27.55-2.61,13L878.57,446Zm55.45,3.59-18.8-10.47L913,463.92Z"/></svg>